# xmcd
#
# Track frame offsets:
# 150
# 11780
# 26552
# 42287
# 56902
# 72465
# 86922
# 102170
# 114627
# 126715
#
# Disc length: 1886 seconds
#
#
# Revision: 0
# Processed by: cddbd v1.5.1PL2 Copyright (c) Steve Scherf et al.
# Submitted via: FreeRIP 2.91 
#
DISCID=95075c0a
DTITLE=Angie Willis - Big Town
DYEAR=1996
DGENRE=Country
TTITLE0=Friday Night In The Big Town
TTITLE1=Weren't You With Me
TTITLE2=If Your Heart Can't Do The Talkin'
TTITLE3=Everything Money Can't Buy
TTITLE4=From The Page Of A Poet
TTITLE5=All Over Me
TTITLE6=Already Over You
TTITLE7=Bruised But Not Broken
TTITLE8=We Didn't Burn That Bridge
TTITLE9=A Good Day For Goodbye
EXTD=
EXTT0=
EXTT1=
EXTT2=
EXTT3=
EXTT4=
EXTT5=
EXTT6=
EXTT7=
EXTT8=
EXTT9=
PLAYORDER=
